<svg xmlns="http://www.w3.org/2000/svg" xmlns:xlink="http://www.w3.org/1999/xlink" viewBox="0 0 30 30" fill="#FFFFFF">
  <path d="M24.707,8.793l-6.5-6.5C18.019,2.105,17.765,2,17.5,2H7C5.895,2,5,2.895,5,4v22c0,1.105,0.895,2,2,2h16c1.105,0,2-0.895,2-2 V9.5C25,9.235,24.895,8.981,24.707,8.793z M19,14.977c0,0.255-0.192,0.469-0.445,0.497L15,15.869c0,2.281,0,4.888,0,5.23 C15,21.948,14.315,23,12.751,23c-1.397,0-1.749-0.895-1.749-1.5c0-0.743,0.448-1.503,1.751-1.503c1.18,0,1.248-0.3,1.248-0.895 l0-5.01c0-0.331,0.249-0.609,0.578-0.646l3.867-0.43C18.741,12.984,19,13.216,19,13.514V14.977z M18,10c-0.552,0-1-0.448-1-1V3.904 L23.096,10H18z" fill="#FFFFFF" />
</svg>